<svg width="101" height="100" viewBox="0 0 101 100" fill="none" xmlns="http://www.w3.org/2000/svg">
<rect x="0.666626" width="100" height="100" rx="50" fill="white"/>
<path d="M50.3333 66C59.1699 66 66.3333 58.8366 66.3333 50C66.3333 41.1634 59.1699 34 50.3333 34C41.4967 34 34.3333 41.1634 34.3333 50C34.3333 58.8366 41.4967 66 50.3333 66ZM50.3333 70C39.2876 70 30.3333 61.0456 30.3333 50C30.3333 38.9543 39.2876 30 50.3333 30C61.3789 30 70.3333 38.9543 70.3333 50C70.3333 61.0456 61.3789 70 50.3333 70ZM50.3333 58C54.7515 58 58.3333 54.4182 58.3333 50C58.3333 45.5817 54.7515 42 50.3333 42C45.915 42 42.3333 45.5817 42.3333 50C42.3333 54.4182 45.915 58 50.3333 58ZM50.3333 62C43.7058 62 38.3333 56.6274 38.3333 50C38.3333 43.3726 43.7058 38 50.3333 38C56.9607 38 62.3333 43.3726 62.3333 50C62.3333 56.6274 56.9607 62 50.3333 62ZM50.3333 54C48.1241 54 46.3333 52.2092 46.3333 50C46.3333 47.7908 48.1241 46 50.3333 46C52.5425 46 54.3333 47.7908 54.3333 50C54.3333 52.2092 52.5425 54 50.3333 54Z" fill="#28D08A"/>
</svg>
