<svg width="100" height="100" viewBox="0 0 100 100" fill="none" xmlns="http://www.w3.org/2000/svg">
<rect width="100" height="100" rx="50" fill="white"/>
<path d="M42 32C34.268 32 28 38.268 28 46C28 53.732 34.268 60 42 60H44.1418C44.0483 59.3468 44 58.679 44 58C44 57.321 44.0483 56.6532 44.1418 56H42C36.4772 56 32 51.5228 32 46C32 40.4772 36.4772 36 42 36H58C63.5228 36 68 40.4772 68 46C68 46.6856 67.931 47.355 67.7996 48.0016C68.9706 49.1496 69.9408 50.5016 70.6528 52C71.5166 50.1814 72 48.1472 72 46C72 38.268 65.732 32 58 32H42ZM58 52C54.6862 52 52 54.6862 52 58C52 61.3138 54.6862 64 58 64C61.3138 64 64 61.3138 64 58C64 54.6862 61.3138 52 58 52ZM48 58C48 52.4772 52.4772 48 58 48C63.5228 48 68 52.4772 68 58C68 60.0382 67.3902 61.934 66.3432 63.5148L71.4142 68.5858L68.5858 71.4142L63.5148 66.3432C61.934 67.3902 60.0382 68 58 68C52.4772 68 48 63.5228 48 58Z" fill="#28D08A"/>
</svg>
