<svg width="127" height="24" viewBox="0 0 127 24" fill="none" xmlns="http://www.w3.org/2000/svg">
<path d="M12.0006 18.26L4.94715 22.2082L6.52248 14.2799L0.587891 8.7918L8.61493 7.84006L12.0006 0.5L15.3862 7.84006L23.4132 8.7918L17.4787 14.2799L19.054 22.2082L12.0006 18.26Z" fill="#FF9D00"/>
<path d="M38.0006 18.26L30.9471 22.2082L32.5225 14.2799L26.5879 8.7918L34.6149 7.84006L38.0006 0.5L41.3862 7.84006L49.4132 8.7918L43.4787 14.2799L45.054 22.2082L38.0006 18.26Z" fill="#FF9D00"/>
<path d="M64.0006 18.26L56.9471 22.2082L58.5225 14.2799L52.5879 8.7918L60.6149 7.84006L64.0006 0.5L67.3862 7.84006L75.4132 8.7918L69.4787 14.2799L71.054 22.2082L64.0006 18.26Z" fill="#FF9D00"/>
<path d="M90.0006 18.26L82.9471 22.2082L84.5225 14.2799L78.5879 8.7918L86.6149 7.84006L90.0006 0.5L93.3862 7.84006L101.413 8.7918L95.4787 14.2799L97.054 22.2082L90.0006 18.26Z" fill="#FF9D00"/>
<path d="M115.413 18.906L108.359 22.8542L109.935 14.9259L104 9.4378L112.027 8.48606L115.413 1.146L118.798 8.48606L126.825 9.4378L120.891 14.9259L122.466 22.8542L115.413 18.906Z" fill="#FF9D00"/>
</svg>
