<svg width="172" height="60" viewBox="0 0 172 60" fill="none" xmlns="http://www.w3.org/2000/svg">
<path d="M29.497 24.6081C24.3577 24.6081 22.738 11.9959 22.738 10.8289C22.738 7.19358 25.7685 4.23885 29.497 4.23885C33.2256 4.23885 36.256 7.19358 36.256 10.8289C36.256 11.9959 34.6363 24.6081 29.497 24.6081Z" fill="#C0CDE0"/>
<path d="M49.9034 26.1203C49.1783 26.5277 43.0731 29.0702 38.595 29.0702C36.6753 29.0702 35.0556 28.6054 34.2863 27.3041C31.7154 22.9643 42.1096 15.2887 43.1443 14.7064C46.3714 12.8899 50.513 13.9707 52.3759 17.1196C54.2414 20.266 53.1305 24.3038 49.9034 26.1203Z" fill="#C0CDE0"/>
<path d="M34.2855 32.696C36.854 28.3585 48.8678 33.2951 49.9026 33.8798C53.1297 35.6939 54.2406 39.7342 52.3775 42.8806C51.1266 44.9918 48.8506 46.1756 46.5132 46.1756C45.3678 46.1756 44.2078 45.8905 43.1435 45.2914C42.1087 44.7091 31.717 37.0358 34.2855 32.696Z" fill="#28D08A"/>
<path d="M29.497 35.3917C34.6363 35.3917 36.256 48.0039 36.256 49.171C36.256 52.8063 33.2256 55.761 29.497 55.761C25.7685 55.761 22.738 52.8063 22.738 49.171C22.738 48.0039 24.3577 35.3917 29.497 35.3917Z" fill="#C0CDE0"/>
<path d="M9.08968 33.8797C10.1244 33.295 22.1408 28.3561 24.7068 32.6959C27.2776 37.0357 16.8834 44.7113 15.8486 45.2936C14.7869 45.8903 13.6268 46.1755 12.479 46.1755C10.1441 46.1755 7.86568 44.9941 6.61711 42.8804C4.75161 39.734 5.86255 35.6962 9.08968 33.8797Z" fill="#C0CDE0"/>
<path d="M24.7043 27.304C23.9351 28.6053 22.313 29.0725 20.3957 29.0725C15.9176 29.0725 9.80994 26.53 9.08734 26.1202C5.86021 24.3061 4.74927 20.2659 6.6123 17.1195C8.47534 13.973 12.6168 12.8898 15.8463 14.7087C16.8811 15.291 27.2728 22.9642 24.7043 27.304Z" fill="#C0CDE0"/>
<path d="M75.068 40.5V22.52H68.744V18.8H85.484V22.52H79.16V40.5H75.068ZM92.4944 40.934C90.965 40.934 89.6114 40.6137 88.4334 39.973C87.276 39.3117 86.3667 38.392 85.7054 37.214C85.0647 36.0153 84.7444 34.61 84.7444 32.998V32.626C84.7444 31.014 85.0647 29.619 85.7054 28.441C86.346 27.2423 87.245 26.3227 88.4024 25.682C89.5597 25.0207 90.903 24.69 92.4324 24.69C93.941 24.69 95.2534 25.031 96.3694 25.713C97.4854 26.3743 98.3534 27.3043 98.9734 28.503C99.5934 29.681 99.9034 31.0553 99.9034 32.626V33.959H88.7124C88.7537 35.013 89.1464 35.8707 89.8904 36.532C90.6344 37.1933 91.5437 37.524 92.6184 37.524C93.7137 37.524 94.5197 37.2863 95.0364 36.811C95.553 36.3357 95.9457 35.8087 96.2144 35.23L99.4074 36.904C99.118 37.4413 98.6944 38.0303 98.1364 38.671C97.599 39.291 96.8757 39.8283 95.9664 40.283C95.057 40.717 93.8997 40.934 92.4944 40.934ZM88.7434 31.045H95.9354C95.8527 30.1563 95.491 29.4433 94.8504 28.906C94.2304 28.3687 93.414 28.1 92.4014 28.1C91.3474 28.1 90.5104 28.3687 89.8904 28.906C89.2704 29.4433 88.888 30.1563 88.7434 31.045ZM110.603 40.934C109.115 40.934 107.761 40.624 106.542 40.004C105.343 39.384 104.393 38.485 103.69 37.307C102.987 36.129 102.636 34.703 102.636 33.029V32.595C102.636 30.921 102.987 29.495 103.69 28.317C104.393 27.139 105.343 26.24 106.542 25.62C107.761 25 109.115 24.69 110.603 24.69C112.07 24.69 113.331 24.9483 114.385 25.465C115.439 25.9817 116.286 26.6947 116.927 27.604C117.588 28.4927 118.022 29.5053 118.229 30.642L114.447 31.448C114.364 30.828 114.178 30.27 113.889 29.774C113.6 29.278 113.186 28.8853 112.649 28.596C112.132 28.3067 111.481 28.162 110.696 28.162C109.911 28.162 109.198 28.3377 108.557 28.689C107.937 29.0197 107.441 29.526 107.069 30.208C106.718 30.8693 106.542 31.6857 106.542 32.657V32.967C106.542 33.9383 106.718 34.765 107.069 35.447C107.441 36.1083 107.937 36.6147 108.557 36.966C109.198 37.2967 109.911 37.462 110.696 37.462C111.874 37.462 112.763 37.1623 113.362 36.563C113.982 35.943 114.375 35.137 114.54 34.145L118.322 35.044C118.053 36.1393 117.588 37.1417 116.927 38.051C116.286 38.9397 115.439 39.6423 114.385 40.159C113.331 40.6757 112.07 40.934 110.603 40.934ZM121.544 40.5V18.8H125.45V27.015H126.008C126.173 26.6843 126.432 26.3537 126.783 26.023C127.134 25.6923 127.599 25.4237 128.178 25.217C128.777 24.9897 129.532 24.876 130.441 24.876C131.64 24.876 132.683 25.155 133.572 25.713C134.481 26.2503 135.184 27.0047 135.68 27.976C136.176 28.9267 136.424 30.0427 136.424 31.324V40.5H132.518V31.634C132.518 30.4767 132.229 29.6087 131.65 29.03C131.092 28.4513 130.286 28.162 129.232 28.162C128.033 28.162 127.103 28.565 126.442 29.371C125.781 30.1563 125.45 31.262 125.45 32.688V40.5H121.544ZM146.113 40.5C145.1 40.5 144.273 40.19 143.633 39.57C143.013 38.9293 142.703 38.082 142.703 37.028V28.348H138.859V25.124H142.703V20.35H146.609V25.124H150.825V28.348H146.609V36.346C146.609 36.966 146.898 37.276 147.477 37.276H150.453V40.5H146.113ZM156.034 46.7V43.29H164.404C164.983 43.29 165.272 42.98 165.272 42.36V38.485H164.714C164.549 38.8363 164.291 39.1877 163.939 39.539C163.588 39.8903 163.113 40.1797 162.513 40.407C161.914 40.6343 161.149 40.748 160.219 40.748C159.021 40.748 157.967 40.4793 157.057 39.942C156.169 39.384 155.476 38.6193 154.98 37.648C154.484 36.6767 154.236 35.5607 154.236 34.3V25.124H158.142V33.99C158.142 35.1473 158.421 36.0153 158.979 36.594C159.558 37.1727 160.374 37.462 161.428 37.462C162.627 37.462 163.557 37.0693 164.218 36.284C164.88 35.478 165.21 34.362 165.21 32.936V25.124H169.116V43.228C169.116 44.282 168.806 45.119 168.186 45.739C167.566 46.3797 166.74 46.7 165.706 46.7H156.034Z" fill="black"/>
</svg>
