<svg width="101" height="100" viewBox="0 0 101 100" fill="none" xmlns="http://www.w3.org/2000/svg">
<rect x="0.333374" width="100" height="100" rx="50" fill="white"/>
<path d="M50.6667 70C39.621 70 30.6667 61.0456 30.6667 50C30.6667 38.9543 39.621 30 50.6667 30C61.7123 30 70.6667 38.9543 70.6667 50C70.6667 61.0456 61.7123 70 50.6667 70ZM50.6667 66C59.5033 66 66.6667 58.8366 66.6667 50C66.6667 41.1634 59.5033 34 50.6667 34C41.8302 34 34.6667 41.1634 34.6667 50C34.6667 58.8366 41.8302 66 50.6667 66ZM52.6667 50H60.6667V54H48.6667V40H52.6667V50Z" fill="#28D08A"/>
</svg>
